<svg xmlns="http://www.w3.org/2000/svg" xmlns:xlink="http://www.w3.org/1999/xlink" width="500" zoomAndPan="magnify" viewBox="0 0 375 374.999991" height="500" preserveAspectRatio="xMidYMid meet" version="1.0"><defs><clipPath id="5267cf683b"><path d="M 122.453125 112.5 L 252.203125 112.5 L 252.203125 262.5 L 122.453125 262.5 Z M 122.453125 112.5 " clip-rule="nonzero"/></clipPath><clipPath id="b3642b9d96"><path d="M 122.453125 112.5 L 252.203125 112.5 L 252.203125 262.5 L 122.453125 262.5 Z M 122.453125 112.5 " clip-rule="nonzero"/></clipPath></defs><rect x="-37.5" width="450" fill="#ffffff" y="-37.499999" height="449.999989" fill-opacity="1"/><rect x="-37.5" width="450" fill="#ffffff" y="-37.499999" height="449.999989" fill-opacity="1"/><g clip-path="url(#5267cf683b)"><path fill="#e9fbff" d="M 252.191406 155.234375 C 252.191406 157.496094 250.671875 159.5 248.496094 160.101562 C 244.710938 161.148438 244.042969 161.820312 243 165.613281 C 242.398438 167.792969 240.402344 169.320312 238.140625 169.320312 C 237.285156 169.320312 236.46875 169.097656 235.75 168.707031 L 230.714844 178.785156 L 231.09375 178.785156 C 236.148438 178.785156 240.257812 182.90625 240.257812 187.96875 L 240.257812 205.054688 C 242.429688 206.167969 243.921875 208.433594 243.921875 211.039062 L 243.921875 230.246094 C 243.921875 232.855469 242.429688 235.117188 240.257812 236.230469 L 240.257812 253.3125 C 240.257812 258.378906 236.148438 262.5 231.09375 262.5 L 139.886719 262.5 C 134.835938 262.5 130.722656 258.378906 130.722656 253.3125 L 130.722656 187.96875 C 130.722656 182.90625 134.835938 178.785156 139.886719 178.785156 L 141.050781 178.785156 L 144.296875 172.296875 L 141.359375 165.613281 C 140.757812 167.792969 138.765625 169.320312 136.503906 169.320312 C 134.246094 169.320312 132.25 167.792969 131.648438 165.613281 C 130.605469 161.816406 129.9375 161.148438 126.152344 160.101562 C 123.976562 159.5 122.457031 157.496094 122.457031 155.234375 C 122.457031 152.96875 123.976562 150.96875 126.152344 150.367188 C 129.9375 149.316406 130.605469 148.648438 131.648438 144.851562 C 132.25 142.667969 134.246094 141.148438 136.503906 141.148438 C 137.3125 141.148438 138.085938 141.34375 138.773438 141.695312 L 138.871094 138.566406 C 138.898438 137.742188 139.164062 136.949219 139.617188 136.285156 C 139.214844 135.355469 138.945312 134.167969 139.019531 132.683594 C 139.363281 125.492188 145.800781 119.898438 152.027344 117.542969 C 153.042969 117.160156 154.078125 116.839844 155.125 116.585938 C 155.125 116.585938 155.171875 116.574219 155.265625 116.550781 C 155.289062 116.546875 155.316406 116.539062 155.347656 116.53125 C 156.335938 116.289062 160.511719 115.300781 166.703125 114.371094 C 171.523438 113.648438 177.5625 112.960938 184.265625 112.683594 C 188.484375 112.515625 192.964844 112.503906 197.566406 112.753906 C 198.785156 112.820312 200.011719 112.902344 201.246094 113.007812 C 204.085938 113.242188 210.613281 114.054688 213.535156 115 C 219.800781 117.027344 225.828125 119.132812 231.777344 122.007812 C 233.09375 122.640625 233.992188 123.902344 234.160156 125.355469 C 234.492188 128.128906 234.816406 130.90625 235.144531 133.679688 C 235.28125 134.832031 234.945312 135.949219 234.269531 136.816406 C 234.523438 137 234.761719 137.214844 234.972656 137.457031 C 235.792969 138.390625 236.167969 139.636719 235.996094 140.871094 C 235.960938 141.144531 235.921875 141.417969 235.882812 141.691406 C 236.566406 141.34375 237.339844 141.148438 238.144531 141.148438 C 240.402344 141.148438 242.398438 142.671875 243 144.851562 C 244.042969 148.648438 244.710938 149.316406 248.496094 150.367188 C 250.671875 150.96875 252.191406 152.96875 252.191406 155.234375 Z M 252.191406 155.234375 " fill-opacity="1" fill-rule="nonzero"/></g><path fill="#89e3f7" d="M 232.550781 164.890625 L 223.621094 182.761719 L 220.148438 182.761719 L 226.914062 169.226562 C 227.304688 168.441406 227.371094 167.546875 227.09375 166.710938 C 226.816406 165.875 226.230469 165.195312 225.445312 164.800781 L 199.789062 151.914062 C 198.167969 151.097656 196.1875 151.757812 195.375 153.382812 L 195.191406 153.753906 L 192.414062 152.359375 L 195.460938 146.257812 Z M 226.378906 168.957031 C 226.699219 168.316406 226.753906 167.582031 226.527344 166.898438 C 226.300781 166.214844 225.820312 165.660156 225.179688 165.339844 L 199.519531 152.449219 C 198.191406 151.78125 196.574219 152.320312 195.910156 153.652344 L 195.722656 154.019531 L 216.5625 164.488281 C 216.710938 164.5625 216.769531 164.742188 216.695312 164.890625 L 209.546875 179.191406 C 210.167969 180.304688 210.601562 181.511719 210.835938 182.761719 L 219.480469 182.761719 Z M 210.226562 182.761719 C 210.027344 181.75 209.6875 180.769531 209.21875 179.847656 L 207.765625 182.761719 Z M 178.9375 146.257812 L 175.890625 152.359375 L 178.664062 153.753906 L 178.847656 153.382812 C 179.660156 151.757812 181.640625 151.097656 183.261719 151.910156 L 208.921875 164.800781 C 209.707031 165.195312 210.292969 165.875 210.570312 166.710938 C 210.847656 167.546875 210.78125 168.441406 210.386719 169.226562 L 203.625 182.761719 L 207.097656 182.761719 L 216.027344 164.890625 Z M 209.851562 168.957031 C 210.175781 168.316406 210.226562 167.582031 210 166.898438 C 209.773438 166.214844 209.296875 165.660156 208.652344 165.339844 L 182.992188 152.449219 C 181.667969 151.78125 180.046875 152.320312 179.382812 153.652344 L 179.199219 154.019531 L 200.035156 164.488281 C 200.183594 164.5625 200.242188 164.742188 200.167969 164.890625 L 193.023438 179.191406 C 193.640625 180.304688 194.074219 181.511719 194.308594 182.761719 L 202.953125 182.761719 Z M 193.699219 182.761719 C 193.5 181.75 193.164062 180.769531 192.695312 179.847656 L 191.238281 182.761719 Z M 162.410156 146.257812 L 144.167969 182.761719 L 147.640625 182.761719 L 162.324219 153.382812 C 163.136719 151.757812 165.117188 151.097656 166.738281 151.910156 L 192.394531 164.800781 C 193.179688 165.195312 193.765625 165.875 194.042969 166.710938 C 194.320312 167.546875 194.257812 168.441406 193.863281 169.226562 L 187.097656 182.761719 L 190.570312 182.761719 L 199.5 164.890625 Z M 186.429688 182.761719 L 193.328125 168.957031 C 193.648438 168.316406 193.703125 167.582031 193.476562 166.898438 C 193.25 166.214844 192.769531 165.660156 192.128906 165.339844 L 166.46875 152.449219 C 165.140625 151.78125 163.523438 152.320312 162.859375 153.652344 L 148.3125 182.761719 L 154.796875 182.761719 C 154.992188 181.707031 155.332031 180.667969 155.832031 179.664062 C 157.234375 176.863281 159.636719 174.773438 162.601562 173.785156 C 165.566406 172.796875 168.738281 173.027344 171.535156 174.429688 C 174.925781 176.136719 177.132812 179.28125 177.785156 182.761719 Z M 177.175781 182.761719 C 176.53125 179.503906 174.449219 176.566406 171.265625 174.964844 C 169.699219 174.179688 168.007812 173.78125 166.304688 173.78125 C 165.125 173.78125 163.941406 173.972656 162.792969 174.355469 C 159.976562 175.292969 157.695312 177.273438 156.367188 179.929688 C 155.910156 180.847656 155.59375 181.800781 155.40625 182.761719 Z M 177.175781 182.761719 " fill-opacity="1" fill-rule="nonzero"/><path fill="#d67456" d="M 135.289062 248.632812 L 235.695312 248.632812 L 235.695312 253.3125 C 235.695312 255.855469 233.632812 257.925781 231.09375 257.925781 L 139.886719 257.925781 C 137.351562 257.925781 135.289062 255.855469 135.289062 253.3125 Z M 231.09375 183.359375 L 139.886719 183.359375 C 137.351562 183.359375 135.289062 185.429688 135.289062 187.96875 L 135.289062 192.648438 L 235.695312 192.648438 L 235.695312 187.96875 C 235.695312 185.429688 233.632812 183.359375 231.09375 183.359375 Z M 239.359375 211.039062 L 239.359375 230.246094 C 239.359375 231.425781 238.402344 232.382812 237.226562 232.382812 L 223.101562 232.382812 C 216.640625 232.382812 211.390625 227.117188 211.390625 220.644531 C 211.390625 214.167969 216.644531 208.902344 223.101562 208.902344 L 237.226562 208.902344 C 238.402344 208.902344 239.359375 209.863281 239.359375 211.039062 Z M 227.730469 220.644531 C 227.730469 217.160156 224.902344 214.324219 221.425781 214.324219 C 217.949219 214.324219 215.121094 217.160156 215.121094 220.644531 C 215.121094 224.128906 217.949219 226.964844 221.425781 226.964844 C 224.902344 226.964844 227.730469 224.128906 227.730469 220.644531 Z M 184.15625 220.164062 C 181.414062 218.871094 178.289062 218.1875 175.101562 218.1875 C 173.964844 218.1875 172.816406 218.277344 171.6875 218.453125 C 171.671875 218.457031 171.65625 218.460938 171.640625 218.460938 C 169.667969 218.769531 167.785156 219.339844 166.039062 220.164062 C 166.148438 220.3125 166.257812 220.460938 166.371094 220.605469 C 168.519531 223.410156 171.378906 225.03125 174.476562 225.222656 C 174.683594 225.234375 174.890625 225.242188 175.101562 225.242188 C 178.582031 225.242188 181.867188 223.394531 184.15625 220.164062 Z M 204.941406 220.164062 C 202.199219 218.871094 199.074219 218.1875 195.882812 218.1875 C 194.746094 218.1875 193.597656 218.277344 192.46875 218.453125 C 192.457031 218.457031 192.441406 218.460938 192.425781 218.460938 C 190.449219 218.769531 188.570312 219.339844 186.824219 220.164062 C 186.933594 220.3125 187.042969 220.460938 187.15625 220.605469 C 189.304688 223.410156 192.164062 225.03125 195.261719 225.222656 C 195.46875 225.234375 195.675781 225.242188 195.882812 225.242188 C 199.367188 225.242188 202.652344 223.394531 204.941406 220.164062 Z M 171.460938 241.1875 C 175.546875 244.179688 180.386719 245.757812 185.492188 245.757812 C 190.59375 245.757812 195.433594 244.179688 199.519531 241.1875 C 195.828125 239.507812 190.75 238.550781 185.492188 238.550781 C 180.238281 238.550781 175.164062 239.507812 171.460938 241.1875 Z M 171.460938 241.1875 " fill-opacity="1" fill-rule="nonzero"/><path fill="#ffce6c" d="M 135.289062 193.25 L 135.289062 248.035156 L 235.695312 248.035156 L 235.695312 232.984375 L 223.101562 232.984375 C 216.3125 232.984375 210.792969 227.449219 210.792969 220.644531 C 210.792969 213.839844 216.3125 208.300781 223.101562 208.300781 L 235.695312 208.300781 L 235.695312 193.25 Z M 202.945312 236.792969 C 202.699219 238.617188 201.761719 240.238281 200.300781 241.351562 C 200.292969 241.359375 200.285156 241.363281 200.273438 241.371094 C 200.09375 241.507812 199.914062 241.636719 199.730469 241.769531 C 199.644531 241.832031 199.558594 241.898438 199.46875 241.960938 C 199.277344 242.09375 199.085938 242.222656 198.894531 242.347656 C 198.808594 242.40625 198.722656 242.464844 198.640625 242.519531 C 198.449219 242.640625 198.257812 242.757812 198.066406 242.871094 C 197.972656 242.925781 197.882812 242.988281 197.789062 243.039062 C 197.597656 243.152344 197.40625 243.257812 197.210938 243.367188 C 197.117188 243.417969 197.023438 243.472656 196.925781 243.523438 C 196.71875 243.632812 196.511719 243.738281 196.300781 243.839844 C 196.214844 243.882812 196.132812 243.929688 196.042969 243.972656 C 195.828125 244.078125 195.609375 244.171875 195.390625 244.269531 C 195.308594 244.308594 195.230469 244.347656 195.148438 244.382812 C 194.941406 244.472656 194.730469 244.554688 194.523438 244.636719 C 194.425781 244.675781 194.332031 244.71875 194.234375 244.753906 C 194.023438 244.835938 193.808594 244.910156 193.59375 244.984375 C 193.5 245.019531 193.40625 245.054688 193.308594 245.089844 C 193.101562 245.15625 192.894531 245.21875 192.6875 245.285156 C 192.578125 245.316406 192.476562 245.351562 192.367188 245.382812 C 192.167969 245.441406 191.96875 245.492188 191.765625 245.546875 C 191.648438 245.578125 191.535156 245.613281 191.417969 245.640625 C 191.179688 245.699219 190.941406 245.75 190.703125 245.804688 C 190.621094 245.820312 190.539062 245.84375 190.453125 245.859375 C 190.214844 245.910156 189.972656 245.949219 189.730469 245.992188 C 189.648438 246.007812 189.5625 246.023438 189.480469 246.039062 C 189.253906 246.074219 189.027344 246.105469 188.800781 246.136719 C 188.699219 246.148438 188.597656 246.164062 188.496094 246.179688 C 188.300781 246.203125 188.101562 246.21875 187.90625 246.238281 C 187.769531 246.25 187.636719 246.269531 187.5 246.277344 C 187.3125 246.292969 187.125 246.300781 186.933594 246.3125 C 186.789062 246.320312 186.644531 246.332031 186.5 246.339844 C 186.164062 246.351562 185.828125 246.359375 185.492188 246.359375 C 185.152344 246.359375 184.816406 246.351562 184.480469 246.339844 C 184.328125 246.332031 184.179688 246.320312 184.027344 246.3125 C 183.84375 246.300781 183.660156 246.292969 183.480469 246.277344 C 183.339844 246.265625 183.199219 246.25 183.058594 246.234375 C 182.867188 246.21875 182.675781 246.203125 182.484375 246.179688 C 182.386719 246.167969 182.289062 246.148438 182.191406 246.136719 C 181.960938 246.105469 181.730469 246.074219 181.5 246.039062 C 181.421875 246.027344 181.34375 246.007812 181.265625 245.996094 C 181.019531 245.953125 180.773438 245.910156 180.527344 245.859375 C 180.429688 245.839844 180.335938 245.816406 180.238281 245.792969 C 180.011719 245.746094 179.789062 245.695312 179.5625 245.640625 C 179.4375 245.609375 179.308594 245.570312 179.179688 245.539062 C 178.992188 245.488281 178.800781 245.4375 178.613281 245.382812 C 178.5 245.351562 178.386719 245.3125 178.277344 245.277344 C 178.074219 245.214844 177.871094 245.15625 177.671875 245.089844 C 177.578125 245.054688 177.484375 245.019531 177.386719 244.984375 C 177.171875 244.910156 176.957031 244.835938 176.746094 244.753906 C 176.652344 244.71875 176.554688 244.675781 176.460938 244.636719 C 176.25 244.554688 176.042969 244.472656 175.835938 244.382812 C 175.753906 244.347656 175.671875 244.308594 175.59375 244.273438 C 175.375 244.171875 175.152344 244.078125 174.9375 243.972656 C 174.851562 243.929688 174.765625 243.882812 174.679688 243.839844 C 174.46875 243.738281 174.261719 243.636719 174.054688 243.523438 C 173.960938 243.472656 173.867188 243.417969 173.769531 243.367188 C 173.578125 243.257812 173.382812 243.152344 173.191406 243.039062 C 173.097656 242.988281 173.007812 242.925781 172.917969 242.871094 C 172.722656 242.757812 172.53125 242.640625 172.34375 242.519531 C 172.257812 242.464844 172.179688 242.410156 172.097656 242.355469 C 171.902344 242.226562 171.707031 242.097656 171.511719 241.960938 C 171.429688 241.902344 171.351562 241.84375 171.269531 241.785156 C 171.082031 241.648438 170.890625 241.511719 170.707031 241.371094 C 170.699219 241.367188 170.6875 241.359375 170.679688 241.351562 C 167.667969 239.050781 167.085938 234.71875 169.382812 231.699219 C 170.492188 230.234375 172.105469 229.292969 173.925781 229.046875 C 175.746094 228.800781 177.554688 229.277344 179.019531 230.394531 C 180.890625 231.824219 183.128906 232.578125 185.492188 232.578125 C 187.855469 232.578125 190.097656 231.824219 191.96875 230.394531 C 194.984375 228.09375 199.300781 228.675781 201.601562 231.699219 C 202.710938 233.160156 203.191406 234.972656 202.945312 236.792969 Z M 205.632812 220.214844 C 203.527344 223.34375 200.542969 225.304688 197.292969 225.746094 C 196.828125 225.808594 196.359375 225.839844 195.882812 225.839844 C 192.410156 225.839844 189.058594 224.066406 186.683594 220.976562 C 186.585938 220.851562 186.492188 220.726562 186.402344 220.601562 C 186.308594 220.472656 186.222656 220.34375 186.132812 220.214844 C 185.90625 219.878906 185.691406 219.53125 185.492188 219.175781 C 185.289062 219.53125 185.074219 219.878906 184.847656 220.214844 C 182.742188 223.34375 179.757812 225.304688 176.507812 225.746094 C 176.042969 225.808594 175.574219 225.839844 175.101562 225.839844 C 171.625 225.839844 168.273438 224.066406 165.898438 220.976562 C 165.800781 220.851562 165.710938 220.726562 165.617188 220.601562 C 165.527344 220.472656 165.4375 220.34375 165.347656 220.214844 C 163.488281 217.457031 162.464844 213.96875 162.464844 210.382812 C 162.464844 209.722656 162.5 209.066406 162.566406 208.429688 C 162.863281 205.539062 163.8125 202.847656 165.300781 200.621094 C 165.421875 200.4375 165.550781 200.253906 165.679688 200.074219 C 166.074219 199.539062 166.5 199.03125 166.957031 198.5625 C 167.445312 198.058594 167.972656 197.59375 168.519531 197.183594 C 170.496094 195.707031 172.773438 194.925781 175.101562 194.925781 C 179.398438 194.925781 183.203125 197.570312 185.484375 201.597656 C 185.675781 201.265625 185.871094 200.9375 186.082031 200.621094 C 186.207031 200.4375 186.335938 200.253906 186.464844 200.074219 C 186.859375 199.539062 187.285156 199.03125 187.742188 198.5625 C 188.230469 198.058594 188.757812 197.59375 189.304688 197.183594 C 191.28125 195.707031 193.554688 194.925781 195.882812 194.925781 C 202.851562 194.925781 208.515625 201.859375 208.515625 210.382812 C 208.515625 213.96875 207.492188 217.457031 205.632812 220.214844 Z M 227.128906 220.644531 C 227.128906 223.796875 224.570312 226.363281 221.425781 226.363281 C 218.277344 226.363281 215.71875 223.796875 215.71875 220.644531 C 215.71875 217.488281 218.277344 214.921875 221.425781 214.921875 C 224.570312 214.921875 227.128906 217.488281 227.128906 220.644531 Z M 247.628906 155.234375 C 247.628906 155.40625 247.539062 155.621094 247.28125 155.691406 C 241.941406 157.167969 240.074219 159.039062 238.601562 164.394531 C 238.53125 164.652344 238.316406 164.742188 238.144531 164.742188 C 237.96875 164.742188 237.757812 164.652344 237.6875 164.394531 C 236.210938 159.039062 234.34375 157.167969 229.003906 155.691406 C 228.746094 155.621094 228.65625 155.40625 228.65625 155.234375 C 228.65625 155.058594 228.746094 154.84375 229.003906 154.773438 C 234.34375 153.296875 236.210938 151.425781 237.6875 146.070312 C 237.757812 145.8125 237.96875 145.722656 238.144531 145.722656 C 238.316406 145.722656 238.53125 145.8125 238.601562 146.070312 C 240.074219 151.425781 241.941406 153.296875 247.28125 154.773438 C 247.539062 154.84375 247.628906 155.058594 247.628906 155.234375 Z M 136.960938 164.394531 C 136.890625 164.652344 136.679688 164.742188 136.503906 164.742188 C 136.332031 164.742188 136.117188 164.652344 136.046875 164.394531 C 134.574219 159.039062 132.707031 157.167969 127.367188 155.691406 C 127.109375 155.621094 127.019531 155.40625 127.019531 155.234375 C 127.019531 155.058594 127.109375 154.84375 127.367188 154.773438 C 132.707031 153.296875 134.574219 151.425781 136.046875 146.070312 C 136.117188 145.8125 136.332031 145.722656 136.503906 145.722656 C 136.679688 145.722656 136.890625 145.8125 136.960938 146.070312 C 138.4375 151.425781 140.300781 153.296875 145.644531 154.773438 C 145.898438 154.84375 145.992188 155.058594 145.992188 155.234375 C 145.992188 155.40625 145.902344 155.621094 145.644531 155.691406 C 140.300781 157.167969 138.4375 159.039062 136.960938 164.394531 Z M 136.960938 164.394531 " fill-opacity="1" fill-rule="nonzero"/><path fill="#221a3f" d="M 153.113281 144.039062 C 149.824219 145.292969 146.328125 146.246094 142.875 146.910156 C 142.960938 144.171875 143.046875 141.4375 143.132812 138.703125 C 146.414062 139.683594 149.816406 138.554688 152.816406 137.464844 C 154.875 136.71875 157 135.261719 156.753906 134.582031 C 156.003906 132.515625 142.929688 140.105469 143.277344 132.890625 C 143.535156 127.550781 148.878906 123.300781 153.53125 121.542969 C 156.207031 120.53125 159.128906 120.011719 161.992188 120.171875 C 161.992188 122.757812 161.992188 125.347656 161.992188 127.933594 C 159.410156 126.917969 156.367188 127.34375 153.832031 128.300781 C 151.675781 129.117188 149.792969 130.609375 149.992188 131.320312 C 150.714844 133.949219 164.066406 126.054688 163.867188 134.152344 C 163.738281 139.488281 157.359375 142.421875 153.113281 144.039062 Z M 163.5 140.261719 C 164.644531 137.523438 165.535156 134.679688 166.308594 131.816406 C 167.160156 129.242188 167.589844 127.957031 168.445312 125.402344 C 169.035156 122.753906 169.613281 120.113281 169.722656 117.390625 C 173.980469 116.652344 178.203125 116.148438 182.515625 115.863281 C 182.648438 118.488281 183.207031 121.023438 183.808594 123.570312 C 184.675781 125.917969 185.113281 127.097656 185.984375 129.464844 C 186.808594 132.097656 187.648438 134.726562 188.824219 137.230469 C 185.941406 137.183594 183.058594 137.269531 180.183594 137.488281 C 180.152344 136.292969 179.835938 134.660156 179.429688 132.914062 C 179.328125 132.667969 179.277344 132.542969 179.175781 132.292969 C 176.699219 132.507812 175.460938 132.652344 172.996094 133.03125 C 172.910156 133.3125 172.867188 133.457031 172.777344 133.738281 C 172.339844 135.585938 172.027344 137.296875 172.027344 138.460938 C 169.160156 138.929688 166.3125 139.53125 163.5 140.261719 Z M 173.75 129.851562 C 175.625 129.578125 176.566406 129.46875 178.453125 129.289062 C 177.925781 128 177.660156 127.359375 177.132812 126.078125 C 176.695312 124.835938 176.507812 123.785156 176.285156 122.460938 C 176.121094 122.480469 176.042969 122.492188 175.878906 122.511719 C 175.628906 123.984375 175.5 124.886719 175.0625 126.324219 C 174.535156 127.730469 174.273438 128.4375 173.75 129.851562 Z M 191.09375 129.5625 C 191.660156 132.132812 192.234375 134.714844 192.355469 137.351562 C 196.675781 137.648438 200.910156 138.164062 205.175781 138.914062 C 205.277344 136.429688 205.761719 133.789062 206.449219 131.40625 C 207.308594 129.203125 207.734375 128.105469 208.589844 125.921875 C 209.320312 123.5 210.039062 121.050781 211.242188 118.808594 C 208.4375 118.078125 205.601562 117.476562 202.746094 117.003906 C 202.714844 118.195312 202.464844 119.902344 202.058594 121.773438 C 201.316406 123.925781 200.574219 126.078125 199.835938 128.230469 C 199.460938 129.59375 199.273438 130.425781 198.988281 131.863281 C 198.839844 131.847656 198.765625 131.835938 198.613281 131.820312 C 198.363281 130.4375 198.078125 129.332031 197.734375 127.976562 C 197.003906 125.640625 196.269531 123.308594 195.535156 120.976562 C 195 119.027344 194.875 117.238281 194.84375 116.042969 C 191.96875 115.8125 189.085938 115.714844 186.207031 115.75 C 187.378906 118.238281 188.144531 120.886719 188.917969 123.519531 C 189.789062 125.925781 190.222656 127.132812 191.09375 129.5625 Z M 212.347656 140.582031 C 218.746094 142.449219 224.761719 144.792969 230.738281 147.746094 C 231.082031 145.257812 231.429688 142.769531 231.773438 140.28125 C 229.453125 140.308594 227.28125 139.167969 225.191406 138.238281 C 223.109375 137.335938 222.0625 136.914062 219.945312 136.136719 L 219.945312 133.804688 C 221.878906 134.515625 222.84375 134.898438 224.746094 135.714844 C 226.136719 136.3125 227.453125 136.988281 228.359375 137.542969 L 228.359375 134.382812 C 227.457031 134.042969 226.136719 133.460938 224.746094 132.863281 C 222.84375 132.042969 221.882812 131.660156 219.945312 130.953125 L 219.945312 128.4375 C 222.398438 129.335938 223.613281 129.828125 226.015625 130.902344 C 228.898438 132.195312 230.1875 133.136719 230.910156 134.183594 C 230.582031 131.410156 230.253906 128.632812 229.929688 125.859375 C 224.207031 123.09375 218.445312 120.878906 212.347656 119.105469 C 212.855469 121.734375 212.964844 124.394531 213.054688 127.0625 L 213.054688 133.015625 C 212.964844 135.550781 212.878906 138.089844 212.347656 140.582031 Z M 233.222656 164.890625 L 224.289062 182.761719 L 231.09375 182.761719 C 233.960938 182.761719 236.292969 185.097656 236.292969 187.96875 L 236.292969 208.300781 L 237.226562 208.300781 C 238.734375 208.300781 239.957031 209.53125 239.957031 211.042969 L 239.957031 230.246094 C 239.957031 231.753906 238.734375 232.984375 237.226562 232.984375 L 236.292969 232.984375 L 236.292969 253.3125 C 236.292969 256.1875 233.960938 258.527344 231.09375 258.527344 L 139.886719 258.527344 C 137.019531 258.527344 134.6875 256.1875 134.6875 253.3125 L 134.6875 187.96875 C 134.6875 185.097656 137.019531 182.761719 139.886719 182.761719 L 143.5 182.761719 L 162.011719 145.722656 C 162.046875 145.652344 162.109375 145.597656 162.183594 145.570312 C 162.257812 145.546875 162.34375 145.550781 162.414062 145.585938 L 175.355469 152.089844 L 178.535156 145.722656 C 178.574219 145.652344 178.636719 145.597656 178.710938 145.570312 C 178.785156 145.546875 178.867188 145.554688 178.9375 145.589844 L 191.878906 152.089844 L 195.0625 145.722656 C 195.097656 145.652344 195.160156 145.597656 195.234375 145.570312 C 195.3125 145.546875 195.394531 145.554688 195.464844 145.589844 L 233.089844 164.488281 C 233.234375 164.5625 233.296875 164.742188 233.222656 164.890625 Z M 239.359375 211.039062 C 239.359375 209.863281 238.402344 208.902344 237.226562 208.902344 L 223.101562 208.902344 C 216.640625 208.902344 211.390625 214.167969 211.390625 220.644531 C 211.390625 227.117188 216.644531 232.382812 223.101562 232.382812 L 237.226562 232.382812 C 238.402344 232.382812 239.359375 231.425781 239.359375 230.246094 Z M 235.695312 208.300781 L 235.695312 193.25 L 135.289062 193.25 L 135.289062 248.035156 L 235.695312 248.035156 L 235.695312 232.984375 L 223.101562 232.984375 C 216.3125 232.984375 210.792969 227.449219 210.792969 220.644531 C 210.792969 213.839844 216.3125 208.300781 223.101562 208.300781 Z M 235.695312 248.632812 L 135.289062 248.632812 L 135.289062 253.3125 C 135.289062 255.855469 137.351562 257.925781 139.886719 257.925781 L 231.09375 257.925781 C 233.632812 257.925781 235.695312 255.855469 235.695312 253.3125 Z M 235.695312 187.96875 C 235.695312 185.429688 233.632812 183.359375 231.09375 183.359375 L 139.886719 183.359375 C 137.351562 183.359375 135.289062 185.429688 135.289062 187.96875 L 135.289062 192.652344 L 235.695312 192.652344 Z M 155.40625 182.761719 L 177.175781 182.761719 C 176.53125 179.503906 174.449219 176.566406 171.265625 174.964844 C 169.699219 174.179688 168.007812 173.78125 166.304688 173.78125 C 165.125 173.78125 163.941406 173.972656 162.792969 174.355469 C 159.976562 175.292969 157.695312 177.273438 156.367188 179.929688 C 155.910156 180.847656 155.59375 181.800781 155.40625 182.761719 Z M 177.785156 182.761719 L 186.429688 182.761719 L 193.328125 168.957031 C 193.648438 168.316406 193.703125 167.582031 193.476562 166.898438 C 193.25 166.214844 192.769531 165.660156 192.128906 165.339844 L 166.46875 152.449219 C 165.140625 151.78125 163.523438 152.320312 162.859375 153.652344 L 148.3125 182.761719 L 154.796875 182.761719 C 154.992188 181.707031 155.332031 180.667969 155.832031 179.664062 C 157.234375 176.863281 159.636719 174.773438 162.601562 173.785156 C 165.566406 172.796875 168.738281 173.027344 171.535156 174.429688 C 174.925781 176.136719 177.132812 179.28125 177.785156 182.761719 Z M 192.695312 179.847656 L 191.238281 182.761719 L 193.703125 182.761719 C 193.5 181.75 193.164062 180.769531 192.695312 179.847656 Z M 194.3125 182.761719 L 202.957031 182.761719 L 209.851562 168.957031 C 210.175781 168.316406 210.226562 167.582031 210 166.898438 C 209.773438 166.214844 209.296875 165.660156 208.652344 165.339844 L 182.992188 152.449219 C 181.667969 151.78125 180.046875 152.320312 179.382812 153.652344 L 179.199219 154.019531 L 200.035156 164.488281 C 200.183594 164.5625 200.242188 164.742188 200.167969 164.890625 L 193.023438 179.191406 C 193.640625 180.304688 194.078125 181.511719 194.3125 182.761719 Z M 209.21875 179.847656 L 207.765625 182.761719 L 210.226562 182.761719 C 210.027344 181.75 209.6875 180.769531 209.21875 179.847656 Z M 210.835938 182.761719 L 219.480469 182.761719 L 226.378906 168.957031 C 226.699219 168.316406 226.753906 167.582031 226.527344 166.898438 C 226.300781 166.214844 225.820312 165.660156 225.179688 165.339844 L 199.519531 152.449219 C 198.195312 151.78125 196.574219 152.320312 195.910156 153.652344 L 195.722656 154.019531 L 216.5625 164.488281 C 216.710938 164.5625 216.769531 164.742188 216.695312 164.890625 L 209.550781 179.191406 C 210.167969 180.304688 210.601562 181.511719 210.835938 182.761719 Z M 178.9375 146.257812 L 175.890625 152.359375 L 178.664062 153.753906 L 178.847656 153.382812 C 179.660156 151.757812 181.640625 151.097656 183.261719 151.910156 L 208.921875 164.800781 C 209.707031 165.195312 210.292969 165.875 210.570312 166.710938 C 210.847656 167.546875 210.78125 168.441406 210.386719 169.226562 L 203.625 182.761719 L 207.097656 182.761719 L 216.027344 164.890625 Z M 162.410156 146.257812 L 144.167969 182.761719 L 147.640625 182.761719 L 162.324219 153.382812 C 163.136719 151.757812 165.117188 151.097656 166.738281 151.910156 L 192.394531 164.800781 C 193.179688 165.195312 193.765625 165.875 194.042969 166.710938 C 194.320312 167.546875 194.257812 168.441406 193.863281 169.226562 L 187.097656 182.761719 L 190.570312 182.761719 L 199.5 164.890625 Z M 223.621094 182.761719 L 232.550781 164.890625 L 195.460938 146.257812 L 192.414062 152.359375 L 195.191406 153.75 L 195.375 153.382812 C 196.1875 151.757812 198.167969 151.097656 199.789062 151.910156 L 225.445312 164.800781 C 226.230469 165.195312 226.816406 165.875 227.09375 166.710938 C 227.371094 167.546875 227.308594 168.441406 226.914062 169.226562 L 220.148438 182.761719 Z M 227.730469 220.644531 C 227.730469 224.128906 224.902344 226.964844 221.425781 226.964844 C 217.949219 226.964844 215.121094 224.128906 215.121094 220.644531 C 215.121094 217.160156 217.949219 214.324219 221.425781 214.324219 C 224.902344 214.324219 227.730469 217.160156 227.730469 220.644531 Z M 227.128906 220.644531 C 227.128906 217.488281 224.570312 214.921875 221.425781 214.921875 C 218.277344 214.921875 215.71875 217.488281 215.71875 220.644531 C 215.71875 223.796875 218.277344 226.363281 221.425781 226.363281 C 224.570312 226.363281 227.128906 223.796875 227.128906 220.644531 Z M 208.515625 210.382812 C 208.515625 213.96875 207.492188 217.457031 205.632812 220.214844 C 203.527344 223.34375 200.542969 225.304688 197.292969 225.746094 C 196.828125 225.808594 196.359375 225.839844 195.882812 225.839844 C 192.410156 225.839844 189.058594 224.066406 186.683594 220.976562 C 186.585938 220.851562 186.492188 220.726562 186.402344 220.601562 C 186.308594 220.472656 186.222656 220.34375 186.132812 220.214844 C 185.90625 219.878906 185.691406 219.53125 185.492188 219.175781 C 185.289062 219.53125 185.074219 219.878906 184.847656 220.214844 C 182.742188 223.34375 179.757812 225.304688 176.507812 225.746094 C 176.042969 225.808594 175.574219 225.839844 175.101562 225.839844 C 171.625 225.839844 168.273438 224.066406 165.898438 220.976562 C 165.800781 220.851562 165.710938 220.726562 165.617188 220.601562 C 165.527344 220.472656 165.4375 220.34375 165.347656 220.214844 C 163.488281 217.457031 162.464844 213.96875 162.464844 210.382812 C 162.464844 209.722656 162.5 209.066406 162.566406 208.429688 C 162.863281 205.539062 163.8125 202.847656 165.300781 200.621094 C 165.421875 200.4375 165.550781 200.253906 165.679688 200.074219 C 166.074219 199.539062 166.5 199.03125 166.957031 198.5625 C 167.445312 198.058594 167.972656 197.59375 168.519531 197.183594 C 170.496094 195.707031 172.773438 194.925781 175.101562 194.925781 C 179.398438 194.925781 183.203125 197.570312 185.484375 201.597656 C 185.675781 201.265625 185.871094 200.9375 186.082031 200.621094 C 186.207031 200.4375 186.335938 200.253906 186.464844 200.074219 C 186.859375 199.539062 187.285156 199.03125 187.742188 198.5625 C 188.230469 198.058594 188.757812 197.59375 189.304688 197.183594 C 191.28125 195.707031 193.554688 194.925781 195.882812 194.925781 C 202.851562 194.925781 208.515625 201.859375 208.515625 210.382812 Z M 195.882812 195.527344 C 193.6875 195.527344 191.535156 196.265625 189.664062 197.664062 C 189.296875 197.9375 188.945312 198.234375 188.605469 198.554688 C 189.644531 198.75 190.652344 199.269531 191.542969 200.085938 C 193.808594 202.152344 195.15625 205.789062 195.15625 209.808594 C 195.15625 212.800781 194.378906 215.660156 193.011719 217.773438 C 193.964844 217.652344 194.929688 217.589844 195.886719 217.589844 C 199.195312 217.589844 202.4375 218.308594 205.277344 219.664062 C 206.980469 217.039062 207.917969 213.757812 207.917969 210.382812 C 207.917969 202.191406 202.519531 195.527344 195.882812 195.527344 Z M 204.941406 220.164062 C 202.199219 218.871094 199.074219 218.1875 195.882812 218.1875 C 194.746094 218.1875 193.597656 218.277344 192.46875 218.453125 C 192.457031 218.457031 192.441406 218.460938 192.425781 218.460938 C 190.449219 218.769531 188.570312 219.339844 186.824219 220.164062 C 186.933594 220.3125 187.042969 220.460938 187.15625 220.605469 C 189.304688 223.410156 192.164062 225.03125 195.261719 225.222656 C 195.46875 225.234375 195.675781 225.242188 195.882812 225.242188 C 199.367188 225.242188 202.652344 223.394531 204.941406 220.164062 Z M 184.15625 220.164062 C 181.414062 218.871094 178.289062 218.1875 175.101562 218.1875 C 173.964844 218.1875 172.816406 218.277344 171.6875 218.453125 C 171.671875 218.457031 171.65625 218.460938 171.640625 218.460938 C 169.667969 218.769531 167.785156 219.339844 166.039062 220.164062 C 166.148438 220.3125 166.257812 220.460938 166.371094 220.605469 C 168.519531 223.410156 171.378906 225.03125 174.476562 225.222656 C 174.683594 225.234375 174.890625 225.242188 175.101562 225.242188 C 178.582031 225.242188 181.867188 223.394531 184.15625 220.164062 Z M 165.59375 209.082031 C 168.386719 209.082031 170.65625 206.261719 170.65625 202.792969 C 170.65625 201.984375 170.535156 201.207031 170.300781 200.476562 C 169.378906 199.65625 168.34375 199.175781 167.289062 199.082031 C 165.039062 201.449219 163.585938 204.71875 163.179688 208.316406 C 163.917969 208.816406 164.75 209.082031 165.59375 209.082031 Z M 185.152344 218.542969 C 183.917969 216.109375 183.25 213.277344 183.25 210.382812 C 183.25 209.722656 183.285156 209.066406 183.351562 208.429688 C 183.578125 206.203125 184.199219 204.09375 185.148438 202.222656 C 182.996094 198.191406 179.296875 195.527344 175.101562 195.527344 C 172.902344 195.527344 170.75 196.265625 168.878906 197.664062 C 168.511719 197.9375 168.160156 198.234375 167.820312 198.554688 C 168.859375 198.75 169.867188 199.265625 170.757812 200.085938 C 173.023438 202.152344 174.371094 205.789062 174.371094 209.808594 C 174.371094 212.800781 173.59375 215.660156 172.226562 217.773438 C 173.183594 217.652344 174.144531 217.589844 175.101562 217.589844 C 178.410156 217.589844 181.652344 218.304688 184.492188 219.664062 C 184.726562 219.300781 184.949219 218.925781 185.152344 218.542969 Z M 183.964844 208.316406 C 184.699219 208.816406 185.53125 209.082031 186.378906 209.082031 C 189.171875 209.082031 191.441406 206.261719 191.441406 202.792969 C 191.441406 201.984375 191.320312 201.207031 191.082031 200.476562 C 190.164062 199.65625 189.128906 199.175781 188.074219 199.082031 C 185.824219 201.449219 184.367188 204.71875 183.964844 208.316406 Z M 201.601562 231.699219 C 202.714844 233.160156 203.191406 234.972656 202.945312 236.792969 C 202.699219 238.617188 201.761719 240.238281 200.300781 241.351562 C 200.292969 241.359375 200.285156 241.363281 200.273438 241.371094 C 200.097656 241.507812 199.914062 241.636719 199.730469 241.769531 C 199.644531 241.832031 199.558594 241.898438 199.46875 241.960938 C 199.277344 242.09375 199.085938 242.222656 198.894531 242.347656 C 198.808594 242.40625 198.726562 242.464844 198.640625 242.519531 C 198.449219 242.640625 198.257812 242.757812 198.066406 242.871094 C 197.972656 242.925781 197.882812 242.988281 197.792969 243.039062 C 197.597656 243.152344 197.40625 243.257812 197.210938 243.367188 C 197.117188 243.417969 197.023438 243.472656 196.925781 243.523438 C 196.71875 243.632812 196.511719 243.738281 196.300781 243.839844 C 196.214844 243.882812 196.132812 243.929688 196.042969 243.972656 C 195.828125 244.078125 195.609375 244.171875 195.390625 244.269531 C 195.308594 244.308594 195.230469 244.347656 195.148438 244.382812 C 194.941406 244.472656 194.730469 244.554688 194.523438 244.636719 C 194.425781 244.675781 194.332031 244.71875 194.234375 244.753906 C 194.023438 244.835938 193.808594 244.910156 193.59375 244.984375 C 193.5 245.019531 193.40625 245.054688 193.308594 245.089844 C 193.101562 245.15625 192.894531 245.21875 192.6875 245.285156 C 192.582031 245.316406 192.476562 245.351562 192.367188 245.382812 C 192.167969 245.441406 191.96875 245.492188 191.765625 245.546875 C 191.648438 245.578125 191.535156 245.613281 191.417969 245.640625 C 191.179688 245.699219 190.941406 245.75 190.703125 245.804688 C 190.621094 245.820312 190.539062 245.84375 190.453125 245.859375 C 190.214844 245.910156 189.972656 245.949219 189.734375 245.992188 C 189.648438 246.007812 189.5625 246.023438 189.480469 246.039062 C 189.253906 246.074219 189.027344 246.105469 188.800781 246.136719 C 188.699219 246.148438 188.597656 246.164062 188.496094 246.179688 C 188.300781 246.203125 188.101562 246.21875 187.90625 246.238281 C 187.769531 246.25 187.636719 246.269531 187.503906 246.277344 C 187.3125 246.292969 187.125 246.300781 186.933594 246.3125 C 186.789062 246.320312 186.644531 246.332031 186.5 246.339844 C 186.164062 246.351562 185.828125 246.359375 185.492188 246.359375 C 185.152344 246.359375 184.816406 246.351562 184.480469 246.339844 C 184.332031 246.332031 184.179688 246.320312 184.027344 246.3125 C 183.847656 246.300781 183.664062 246.292969 183.480469 246.277344 C 183.339844 246.265625 183.199219 246.25 183.058594 246.234375 C 182.867188 246.21875 182.675781 246.203125 182.484375 246.179688 C 182.386719 246.167969 182.289062 246.148438 182.191406 246.136719 C 181.960938 246.105469 181.730469 246.074219 181.5 246.039062 C 181.421875 246.027344 181.34375 246.007812 181.265625 245.996094 C 181.019531 245.953125 180.773438 245.910156 180.527344 245.859375 C 180.429688 245.839844 180.335938 245.816406 180.238281 245.792969 C 180.011719 245.746094 179.789062 245.695312 179.566406 245.640625 C 179.4375 245.609375 179.308594 245.570312 179.179688 245.539062 C 178.992188 245.488281 178.800781 245.4375 178.613281 245.382812 C 178.5 245.351562 178.386719 245.3125 178.277344 245.277344 C 178.074219 245.214844 177.871094 245.15625 177.671875 245.089844 C 177.578125 245.054688 177.484375 245.019531 177.386719 244.984375 C 177.171875 244.910156 176.957031 244.835938 176.746094 244.753906 C 176.652344 244.71875 176.554688 244.675781 176.460938 244.636719 C 176.25 244.554688 176.042969 244.472656 175.835938 244.382812 C 175.753906 244.347656 175.671875 244.308594 175.59375 244.273438 C 175.375 244.171875 175.152344 244.078125 174.9375 243.972656 C 174.851562 243.929688 174.765625 243.882812 174.679688 243.839844 C 174.472656 243.738281 174.261719 243.636719 174.054688 243.523438 C 173.960938 243.472656 173.867188 243.417969 173.769531 243.367188 C 173.578125 243.257812 173.382812 243.152344 173.191406 243.039062 C 173.097656 242.988281 173.007812 242.925781 172.917969 242.871094 C 172.726562 242.757812 172.53125 242.640625 172.34375 242.519531 C 172.261719 242.464844 172.179688 242.410156 172.097656 242.355469 C 171.902344 242.226562 171.707031 242.097656 171.511719 241.960938 C 171.429688 241.902344 171.351562 241.84375 171.269531 241.785156 C 171.082031 241.648438 170.890625 241.511719 170.707031 241.371094 C 170.699219 241.367188 170.6875 241.359375 170.679688 241.351562 C 167.667969 239.050781 167.085938 234.71875 169.382812 231.699219 C 170.492188 230.234375 172.105469 229.292969 173.925781 229.046875 C 175.746094 228.800781 177.554688 229.277344 179.019531 230.394531 C 180.890625 231.824219 183.128906 232.578125 185.492188 232.578125 C 187.859375 232.578125 190.097656 231.824219 191.96875 230.394531 C 194.984375 228.089844 199.304688 228.675781 201.601562 231.699219 Z M 185.492188 238.550781 C 180.238281 238.550781 175.164062 239.507812 171.460938 241.1875 C 175.546875 244.179688 180.386719 245.757812 185.492188 245.757812 C 190.59375 245.757812 195.433594 244.179688 199.519531 241.1875 C 195.824219 239.507812 190.75 238.550781 185.492188 238.550781 Z M 248.226562 155.234375 C 248.226562 155.722656 247.910156 156.140625 247.441406 156.269531 C 242.296875 157.691406 240.597656 159.398438 239.175781 164.554688 C 239.046875 165.027344 238.632812 165.34375 238.144531 165.34375 C 237.65625 165.34375 237.238281 165.027344 237.109375 164.554688 C 235.6875 159.398438 233.988281 157.691406 228.84375 156.269531 C 228.375 156.140625 228.058594 155.722656 228.058594 155.234375 C 228.058594 154.742188 228.375 154.328125 228.84375 154.195312 C 233.988281 152.773438 235.6875 151.070312 237.109375 145.910156 C 237.238281 145.4375 237.65625 145.121094 238.144531 145.121094 C 238.632812 145.121094 239.046875 145.4375 239.175781 145.910156 C 240.597656 151.070312 242.296875 152.773438 247.441406 154.195312 C 247.910156 154.324219 248.226562 154.742188 248.226562 155.234375 Z M 247.628906 155.234375 C 247.628906 155.058594 247.539062 154.84375 247.28125 154.773438 C 241.941406 153.296875 240.074219 151.425781 238.601562 146.070312 C 238.53125 145.8125 238.316406 145.722656 238.144531 145.722656 C 237.96875 145.722656 237.757812 145.8125 237.6875 146.070312 C 236.210938 151.425781 234.34375 153.296875 229.003906 154.773438 C 228.746094 154.84375 228.65625 155.058594 228.65625 155.234375 C 228.65625 155.40625 228.746094 155.621094 229.003906 155.691406 C 234.34375 157.167969 236.210938 159.039062 237.6875 164.394531 C 237.757812 164.652344 237.96875 164.742188 238.144531 164.742188 C 238.316406 164.742188 238.53125 164.652344 238.601562 164.394531 C 240.074219 159.039062 241.941406 157.167969 247.28125 155.691406 C 247.539062 155.621094 247.628906 155.40625 247.628906 155.234375 Z M 145.804688 156.269531 C 140.65625 157.691406 138.957031 159.398438 137.539062 164.554688 C 137.410156 165.027344 136.992188 165.34375 136.503906 165.34375 C 136.015625 165.34375 135.601562 165.027344 135.472656 164.554688 C 134.050781 159.398438 132.351562 157.691406 127.207031 156.269531 C 126.734375 156.140625 126.421875 155.722656 126.421875 155.234375 C 126.421875 154.742188 126.734375 154.328125 127.207031 154.195312 C 132.351562 152.773438 134.050781 151.070312 135.472656 145.910156 C 135.601562 145.4375 136.015625 145.121094 136.503906 145.121094 C 136.992188 145.121094 137.410156 145.4375 137.539062 145.910156 C 138.957031 151.070312 140.65625 152.773438 145.804688 154.195312 C 146.273438 154.328125 146.589844 154.742188 146.589844 155.234375 C 146.589844 155.722656 146.273438 156.140625 145.804688 156.269531 Z M 136.960938 164.394531 C 138.4375 159.039062 140.300781 157.167969 145.644531 155.691406 C 145.898438 155.621094 145.992188 155.40625 145.992188 155.234375 C 145.992188 155.058594 145.902344 154.84375 145.644531 154.773438 C 140.300781 153.296875 138.4375 151.425781 136.960938 146.070312 C 136.890625 145.8125 136.679688 145.722656 136.503906 145.722656 C 136.332031 145.722656 136.117188 145.8125 136.046875 146.070312 C 134.574219 151.425781 132.707031 153.296875 127.367188 154.773438 C 127.109375 154.84375 127.019531 155.058594 127.019531 155.234375 C 127.019531 155.40625 127.109375 155.621094 127.367188 155.691406 C 132.707031 157.167969 134.574219 159.039062 136.046875 164.394531 C 136.117188 164.652344 136.332031 164.742188 136.503906 164.742188 C 136.679688 164.742188 136.890625 164.652344 136.960938 164.394531 Z M 136.960938 164.394531 " fill-opacity="1" fill-rule="nonzero"/><g clip-path="url(#b3642b9d96)"><path fill="#e9fbff" d="M 178.453125 129.289062 C 176.566406 129.46875 175.625 129.578125 173.75 129.851562 C 174.273438 128.4375 174.535156 127.730469 175.0625 126.324219 C 175.503906 124.886719 175.628906 123.984375 175.878906 122.511719 C 176.042969 122.492188 176.125 122.480469 176.285156 122.460938 C 176.507812 123.785156 176.695312 124.835938 177.132812 126.078125 C 177.660156 127.359375 177.925781 128 178.453125 129.289062 Z M 252.191406 155.234375 C 252.191406 157.496094 250.671875 159.5 248.496094 160.101562 C 244.710938 161.148438 244.042969 161.820312 243 165.613281 C 242.398438 167.792969 240.402344 169.320312 238.140625 169.320312 C 237.285156 169.320312 236.46875 169.097656 235.75 168.707031 L 230.714844 178.785156 L 231.09375 178.785156 C 236.148438 178.785156 240.257812 182.90625 240.257812 187.96875 L 240.257812 205.054688 C 242.429688 206.167969 243.921875 208.433594 243.921875 211.039062 L 243.921875 230.246094 C 243.921875 232.855469 242.429688 235.117188 240.257812 236.230469 L 240.257812 253.3125 C 240.257812 258.378906 236.148438 262.5 231.09375 262.5 L 139.886719 262.5 C 134.835938 262.5 130.722656 258.378906 130.722656 253.3125 L 130.722656 187.96875 C 130.722656 182.90625 134.835938 178.785156 139.886719 178.785156 L 141.050781 178.785156 L 144.296875 172.296875 L 141.359375 165.613281 C 140.757812 167.792969 138.765625 169.320312 136.503906 169.320312 C 134.246094 169.320312 132.25 167.792969 131.648438 165.613281 C 130.605469 161.816406 129.9375 161.148438 126.152344 160.101562 C 123.976562 159.5 122.457031 157.496094 122.457031 155.234375 C 122.457031 152.96875 123.976562 150.96875 126.152344 150.367188 C 129.9375 149.316406 130.605469 148.648438 131.648438 144.851562 C 132.25 142.667969 134.246094 141.148438 136.503906 141.148438 C 137.3125 141.148438 138.085938 141.34375 138.773438 141.695312 L 138.871094 138.566406 C 138.898438 137.742188 139.164062 136.949219 139.617188 136.285156 C 139.214844 135.355469 138.945312 134.167969 139.019531 132.683594 C 139.363281 125.492188 145.800781 119.898438 152.027344 117.542969 C 153.039062 117.160156 154.078125 116.839844 155.125 116.585938 C 155.125 116.585938 155.171875 116.574219 155.265625 116.550781 C 155.289062 116.546875 155.316406 116.539062 155.347656 116.53125 C 156.335938 116.289062 160.511719 115.300781 166.703125 114.371094 C 171.523438 113.648438 177.5625 112.960938 184.265625 112.683594 C 188.484375 112.515625 192.960938 112.503906 197.5625 112.753906 C 198.785156 112.820312 200.011719 112.902344 201.246094 113.007812 C 204.085938 113.242188 210.613281 114.054688 213.535156 115 C 219.800781 117.027344 225.828125 119.132812 231.777344 122.007812 C 233.09375 122.640625 233.988281 123.902344 234.160156 125.355469 C 234.492188 128.128906 234.816406 130.90625 235.144531 133.679688 C 235.28125 134.832031 234.945312 135.949219 234.269531 136.816406 C 234.523438 137 234.761719 137.214844 234.972656 137.457031 C 235.792969 138.390625 236.167969 139.636719 235.996094 140.871094 C 235.960938 141.144531 235.917969 141.417969 235.882812 141.691406 C 236.566406 141.34375 237.339844 141.148438 238.144531 141.148438 C 240.402344 141.148438 242.398438 142.671875 243 144.851562 C 244.042969 148.648438 244.710938 149.316406 248.496094 150.367188 C 250.671875 150.96875 252.191406 152.96875 252.191406 155.234375 Z M 213.054688 127.0625 L 213.054688 133.015625 C 212.964844 135.550781 212.878906 138.089844 212.347656 140.582031 C 218.746094 142.449219 224.761719 144.792969 230.738281 147.746094 C 231.082031 145.257812 231.429688 142.769531 231.773438 140.28125 C 229.453125 140.308594 227.28125 139.167969 225.191406 138.238281 C 223.109375 137.335938 222.0625 136.914062 219.945312 136.136719 L 219.945312 133.804688 C 221.878906 134.515625 222.84375 134.898438 224.746094 135.714844 C 226.136719 136.3125 227.453125 136.988281 228.359375 137.542969 L 228.359375 134.382812 C 227.457031 134.042969 226.136719 133.460938 224.746094 132.863281 C 222.84375 132.042969 221.882812 131.660156 219.945312 130.953125 L 219.945312 128.4375 C 222.398438 129.335938 223.613281 129.828125 226.015625 130.902344 C 228.898438 132.195312 230.1875 133.136719 230.910156 134.183594 C 230.582031 131.410156 230.253906 128.632812 229.929688 125.859375 C 224.207031 123.09375 218.445312 120.878906 212.347656 119.105469 C 212.855469 121.734375 212.964844 124.394531 213.054688 127.0625 Z M 186.203125 115.75 C 187.375 118.238281 188.144531 120.886719 188.917969 123.519531 C 189.789062 125.925781 190.222656 127.136719 191.09375 129.5625 C 191.660156 132.132812 192.234375 134.714844 192.355469 137.351562 C 196.675781 137.648438 200.910156 138.164062 205.175781 138.914062 C 205.277344 136.429688 205.761719 133.789062 206.449219 131.40625 C 207.308594 129.203125 207.734375 128.105469 208.589844 125.921875 C 209.320312 123.5 210.039062 121.050781 211.242188 118.808594 C 208.4375 118.078125 205.601562 117.476562 202.746094 117.003906 C 202.714844 118.195312 202.464844 119.902344 202.058594 121.773438 C 201.316406 123.925781 200.574219 126.078125 199.835938 128.230469 C 199.460938 129.59375 199.273438 130.425781 198.988281 131.863281 C 198.839844 131.847656 198.765625 131.835938 198.613281 131.820312 C 198.363281 130.4375 198.078125 129.332031 197.734375 127.976562 C 197.003906 125.640625 196.269531 123.308594 195.535156 120.976562 C 195 119.027344 194.875 117.238281 194.84375 116.042969 C 191.96875 115.8125 189.085938 115.714844 186.203125 115.75 Z M 166.308594 131.816406 C 165.535156 134.679688 164.644531 137.523438 163.5 140.261719 C 166.3125 139.53125 169.160156 138.929688 172.027344 138.460938 C 172.027344 137.296875 172.339844 135.585938 172.777344 133.738281 C 172.867188 133.457031 172.910156 133.3125 172.996094 133.03125 C 175.460938 132.65625 176.699219 132.507812 179.175781 132.292969 C 179.277344 132.542969 179.328125 132.667969 179.429688 132.914062 C 179.835938 134.660156 180.152344 136.292969 180.183594 137.488281 C 183.058594 137.269531 185.941406 137.183594 188.820312 137.230469 C 187.648438 134.726562 186.808594 132.097656 185.984375 129.464844 C 185.113281 127.097656 184.675781 125.917969 183.808594 123.570312 C 183.207031 121.023438 182.648438 118.488281 182.515625 115.863281 C 178.203125 116.148438 173.980469 116.652344 169.722656 117.390625 C 169.613281 120.113281 169.035156 122.753906 168.445312 125.402344 C 167.589844 127.957031 167.160156 129.242188 166.308594 131.816406 Z M 142.875 146.910156 C 146.328125 146.246094 149.824219 145.292969 153.113281 144.039062 C 157.359375 142.421875 163.738281 139.488281 163.867188 134.152344 C 164.066406 126.054688 150.714844 133.945312 149.988281 131.320312 C 149.792969 130.609375 151.675781 129.117188 153.832031 128.300781 C 156.367188 127.339844 159.410156 126.914062 161.992188 127.933594 C 161.992188 125.347656 161.992188 122.757812 161.992188 120.171875 C 159.128906 120.011719 156.207031 120.53125 153.53125 121.542969 C 148.878906 123.300781 143.535156 127.550781 143.277344 132.890625 C 142.929688 140.105469 156.003906 132.511719 156.753906 134.582031 C 157 135.261719 154.875 136.71875 152.8125 137.464844 C 149.816406 138.554688 146.414062 139.683594 143.132812 138.703125 C 143.046875 141.4375 142.960938 144.171875 142.875 146.910156 Z M 145.804688 156.269531 C 146.273438 156.140625 146.589844 155.722656 146.589844 155.234375 C 146.589844 154.742188 146.273438 154.328125 145.804688 154.195312 C 140.65625 152.773438 138.957031 151.070312 137.539062 145.910156 C 137.410156 145.4375 136.992188 145.121094 136.503906 145.121094 C 136.015625 145.121094 135.601562 145.4375 135.472656 145.910156 C 134.050781 151.070312 132.351562 152.773438 127.207031 154.195312 C 126.734375 154.328125 126.421875 154.742188 126.421875 155.234375 C 126.421875 155.722656 126.734375 156.140625 127.207031 156.269531 C 132.351562 157.691406 134.050781 159.398438 135.472656 164.554688 C 135.601562 165.027344 136.015625 165.34375 136.503906 165.34375 C 136.992188 165.34375 137.410156 165.027344 137.539062 164.554688 C 138.957031 159.394531 140.65625 157.691406 145.804688 156.269531 Z M 233.085938 164.488281 L 195.464844 145.585938 C 195.394531 145.550781 195.308594 145.546875 195.234375 145.570312 C 195.160156 145.597656 195.097656 145.652344 195.0625 145.722656 L 191.878906 152.089844 L 178.9375 145.585938 C 178.867188 145.550781 178.785156 145.546875 178.710938 145.570312 C 178.632812 145.597656 178.570312 145.648438 178.535156 145.722656 L 175.355469 152.089844 L 162.410156 145.585938 C 162.339844 145.550781 162.257812 145.546875 162.183594 145.570312 C 162.109375 145.597656 162.046875 145.648438 162.011719 145.722656 L 143.5 182.761719 L 139.886719 182.761719 C 137.019531 182.761719 134.6875 185.097656 134.6875 187.96875 L 134.6875 253.3125 C 134.6875 256.1875 137.019531 258.523438 139.886719 258.523438 L 231.09375 258.523438 C 233.960938 258.523438 236.292969 256.1875 236.292969 253.3125 L 236.292969 232.984375 L 237.226562 232.984375 C 238.734375 232.984375 239.957031 231.753906 239.957031 230.246094 L 239.957031 211.039062 C 239.957031 209.53125 238.734375 208.300781 237.226562 208.300781 L 236.292969 208.300781 L 236.292969 187.96875 C 236.292969 185.097656 233.960938 182.761719 231.09375 182.761719 L 224.289062 182.761719 L 233.222656 164.890625 C 233.296875 164.742188 233.234375 164.5625 233.085938 164.488281 Z M 248.226562 155.234375 C 248.226562 154.742188 247.910156 154.328125 247.441406 154.195312 C 242.296875 152.773438 240.597656 151.070312 239.175781 145.910156 C 239.046875 145.4375 238.632812 145.121094 238.144531 145.121094 C 237.65625 145.121094 237.238281 145.4375 237.109375 145.910156 C 235.6875 151.070312 233.988281 152.773438 228.84375 154.195312 C 228.375 154.328125 228.058594 154.742188 228.058594 155.234375 C 228.058594 155.722656 228.375 156.140625 228.84375 156.269531 C 233.988281 157.691406 235.6875 159.398438 237.109375 164.554688 C 237.238281 165.027344 237.65625 165.34375 238.144531 165.34375 C 238.632812 165.34375 239.046875 165.027344 239.175781 164.554688 C 240.597656 159.398438 242.296875 157.691406 247.441406 156.269531 C 247.910156 156.140625 248.226562 155.722656 248.226562 155.234375 Z M 183.25 210.382812 C 183.25 209.722656 183.285156 209.066406 183.351562 208.429688 C 183.578125 206.203125 184.199219 204.09375 185.148438 202.222656 C 182.996094 198.195312 179.296875 195.527344 175.101562 195.527344 C 172.902344 195.527344 170.75 196.265625 168.878906 197.664062 C 168.511719 197.9375 168.160156 198.234375 167.820312 198.554688 C 168.859375 198.75 169.867188 199.269531 170.757812 200.085938 C 173.023438 202.152344 174.371094 205.789062 174.371094 209.808594 C 174.371094 212.800781 173.59375 215.660156 172.226562 217.773438 C 173.183594 217.652344 174.144531 217.589844 175.101562 217.589844 C 178.410156 217.589844 181.652344 218.308594 184.492188 219.664062 C 184.726562 219.300781 184.949219 218.929688 185.152344 218.542969 C 183.917969 216.109375 183.25 213.277344 183.25 210.382812 Z M 165.59375 209.082031 C 168.386719 209.082031 170.65625 206.261719 170.65625 202.792969 C 170.65625 201.984375 170.535156 201.207031 170.300781 200.476562 C 169.378906 199.65625 168.34375 199.175781 167.289062 199.082031 C 165.039062 201.449219 163.585938 204.71875 163.179688 208.316406 C 163.917969 208.816406 164.75 209.082031 165.59375 209.082031 Z M 195.882812 195.527344 C 193.6875 195.527344 191.535156 196.265625 189.664062 197.664062 C 189.296875 197.9375 188.945312 198.234375 188.605469 198.554688 C 189.644531 198.75 190.652344 199.269531 191.542969 200.085938 C 193.808594 202.152344 195.15625 205.789062 195.15625 209.808594 C 195.15625 212.800781 194.378906 215.660156 193.011719 217.773438 C 193.964844 217.652344 194.929688 217.589844 195.886719 217.589844 C 199.195312 217.589844 202.4375 218.308594 205.277344 219.664062 C 206.980469 217.039062 207.917969 213.757812 207.917969 210.382812 C 207.917969 202.191406 202.519531 195.527344 195.882812 195.527344 Z M 183.964844 208.316406 C 184.699219 208.816406 185.53125 209.082031 186.378906 209.082031 C 189.171875 209.082031 191.441406 206.261719 191.441406 202.792969 C 191.441406 201.984375 191.320312 201.207031 191.082031 200.476562 C 190.164062 199.65625 189.128906 199.175781 188.074219 199.082031 C 185.824219 201.449219 184.367188 204.71875 183.964844 208.316406 Z M 183.964844 208.316406 " fill-opacity="1" fill-rule="nonzero"/></g></svg>